<svg width="221" height="89" viewBox="0 0 221 89" fill="none" xmlns="http://www.w3.org/2000/svg">
<g clip-path="url(#clip0_133_309)">
<path d="M175.456 19.0468L181.831 32.2944L195.694 34.9941C196.023 35.0586 196.334 35.2164 196.592 35.4497C196.849 35.683 197.042 35.9826 197.15 36.3146C197.258 36.6466 197.275 36.9978 197.201 37.3286C197.126 37.6594 196.962 37.9567 196.728 38.1868L186.869 47.846L189.44 62.2122C189.501 62.5539 189.469 62.901 189.348 63.2141C189.227 63.5273 189.023 63.7942 188.757 63.9848C188.491 64.1753 188.175 64.2819 187.844 64.2925C187.512 64.3031 187.18 64.2174 186.883 64.0449L174.413 56.7769L162.143 62.9525C161.851 63.0997 161.52 63.1568 161.188 63.1173C160.855 63.0778 160.535 62.9432 160.263 62.7288C159.99 62.5144 159.777 62.2287 159.647 61.904C159.517 61.5793 159.475 61.2285 159.526 60.8913L161.679 46.7337L151.522 36.1907C151.281 35.939 151.108 35.6262 151.024 35.2878C150.94 34.9494 150.948 34.5987 151.047 34.2756C151.146 33.9525 151.332 33.6698 151.584 33.4595C151.836 33.2492 152.143 33.1197 152.472 33.0856L166.273 31.6159L172.258 18.9056C172.4 18.6027 172.624 18.3521 172.904 18.1823C173.184 18.0125 173.509 17.9303 173.842 17.945C174.175 17.9597 174.502 18.0707 174.788 18.2655C175.073 18.4602 175.304 18.7309 175.456 19.0468V19.0468Z" fill="#FFC701"/>
<path d="M187.724 64.6955C187.371 64.6804 187.023 64.5753 186.71 64.3894L174.419 57.2146L162.327 63.3128C161.972 63.4915 161.57 63.5608 161.166 63.5128C160.762 63.4648 160.373 63.3013 160.042 63.041C159.712 62.7806 159.452 62.4336 159.294 62.0393C159.136 61.6449 159.084 61.2189 159.146 60.8092L161.267 46.8547L151.258 36.4716C150.962 36.1665 150.749 35.7863 150.645 35.3741C150.541 34.962 150.549 34.5344 150.669 34.1402C150.788 33.746 151.014 33.4008 151.321 33.144C151.627 32.8873 152.002 32.7292 152.403 32.6878L166.002 31.2403L171.91 18.7198C172.083 18.3519 172.355 18.0477 172.696 17.8416C173.036 17.6355 173.431 17.5357 173.836 17.5536C174.241 17.5715 174.639 17.7063 174.986 17.9427C175.333 18.1792 175.615 18.5078 175.799 18.8915L182.081 31.9503L195.743 34.6014C196.143 34.6808 196.521 34.8736 196.833 35.158C197.146 35.4425 197.38 35.8072 197.51 36.2111C197.639 36.615 197.659 37.042 197.568 37.4439C197.476 37.8457 197.276 38.2064 196.99 38.4853L187.274 47.9974L189.809 62.1546C189.867 62.4793 189.856 62.809 189.778 63.1208C189.7 63.4327 189.556 63.7192 189.357 63.9604C189.157 64.2016 188.907 64.3918 188.623 64.5177C188.339 64.6436 188.028 64.7021 187.712 64.6893L187.724 64.6955ZM174.406 56.3136L174.588 56.4183L187.056 63.6975C187.288 63.8335 187.549 63.9015 187.809 63.8937C188.069 63.886 188.317 63.8028 188.526 63.6537C188.735 63.5045 188.895 63.2952 188.99 63.0496C189.085 62.8039 189.11 62.5317 189.062 62.2637L186.452 47.6884L196.458 37.9051C196.641 37.7245 196.769 37.4915 196.828 37.2321C196.886 36.9728 196.873 36.6975 196.788 36.4372C196.704 36.177 196.553 35.9421 196.351 35.759C196.149 35.5759 195.906 35.452 195.647 35.401L181.582 32.6668L175.113 19.2163C174.994 18.969 174.812 18.7572 174.589 18.6049C174.365 18.4525 174.108 18.3657 173.848 18.3542C173.587 18.3427 173.332 18.4069 173.113 18.5397C172.894 18.6725 172.718 18.8686 172.607 19.1056L166.526 32.002L152.525 33.4827C152.268 33.5109 152.027 33.6135 151.831 33.779C151.634 33.9445 151.49 34.1663 151.413 34.4195C151.336 34.6726 151.331 34.9471 151.397 35.2119C151.463 35.4767 151.598 35.7214 151.787 35.9184L162.094 46.6128L159.908 60.965C159.865 61.2301 159.895 61.507 159.996 61.7637C160.097 62.0204 160.264 62.2466 160.478 62.4163C160.692 62.586 160.945 62.6922 161.207 62.7228C161.469 62.7534 161.73 62.7072 161.959 62.5893L174.406 56.3136Z" fill="black"/>
<path d="M199.905 38.7475C199.775 38.3426 199.54 37.9772 199.226 37.6931C198.912 37.409 198.533 37.2177 198.131 37.141L197.627 37.045C197.637 36.7643 197.595 36.4812 197.505 36.2102C197.375 35.8055 197.14 35.4403 196.827 35.1562C196.513 34.8722 196.134 34.6807 195.732 34.6038L182.081 31.9503L175.799 18.8915C175.615 18.5078 175.333 18.1791 174.986 17.9427C174.639 17.7063 174.241 17.5715 173.836 17.5536C173.431 17.5357 173.036 17.6355 172.696 17.8416C172.355 18.0477 172.083 18.3519 171.91 18.7198L166.002 31.2403L152.404 32.6878C152.004 32.73 151.63 32.8884 151.324 33.1448C151.018 33.4012 150.793 33.7456 150.674 34.1388C150.555 34.532 150.546 34.9584 150.649 35.3696C150.752 35.7809 150.963 36.1607 151.258 36.4659L161.267 46.849L159.146 60.8035C159.095 61.1403 159.12 61.4892 159.22 61.8234C159.319 62.1575 159.49 62.4679 159.72 62.7304C159.949 62.9929 160.231 63.2006 160.543 63.3373C160.856 63.474 161.19 63.536 161.521 63.5186C161.49 63.9191 161.565 64.3269 161.738 64.6989C161.911 65.0709 162.176 65.3933 162.503 65.6319C162.831 65.8704 163.21 66.0164 163.6 66.0542C163.989 66.0921 164.376 66.0204 164.718 65.8468L176.81 59.7486L189.095 66.9232C189.41 67.1072 189.759 67.2122 190.112 67.2294C190.428 67.2422 190.738 67.1837 191.022 67.0578C191.306 66.9319 191.557 66.7417 191.756 66.5005C191.956 66.2593 192.1 65.9728 192.178 65.6609C192.256 65.3491 192.266 65.0194 192.209 64.6947L189.674 50.5375L199.39 41.0254C199.676 40.7463 199.876 40.3848 199.967 39.982C200.058 39.5792 200.037 39.1515 199.905 38.7475V38.7475ZM160.484 62.4106C160.269 62.2432 160.101 62.0182 160 61.7621C159.899 61.506 159.869 61.2295 159.914 60.9652L162.097 46.6016L151.79 35.9214C151.601 35.7244 151.466 35.4797 151.4 35.2148C151.334 34.95 151.339 34.6756 151.416 34.4224C151.492 34.1693 151.637 33.9474 151.834 33.7819C152.03 33.6164 152.27 33.5138 152.528 33.4857L166.526 32.002L172.607 19.1056C172.718 18.8685 172.894 18.6725 173.113 18.5397C173.333 18.4069 173.587 18.3427 173.848 18.3542C174.108 18.3657 174.365 18.4525 174.589 18.6049C174.812 18.7572 174.994 18.969 175.113 19.2163L181.582 32.6668L195.642 35.3951C195.9 35.446 196.144 35.57 196.346 35.7531C196.547 35.9362 196.699 36.171 196.783 36.4313C196.867 36.6916 196.881 36.9669 196.822 37.2262C196.764 37.4855 196.636 37.7186 196.452 37.8991L186.447 47.6967L189.062 62.2523C189.11 62.5203 189.085 62.7926 188.99 63.0382C188.895 63.2839 188.735 63.4931 188.526 63.6423C188.317 63.7915 188.069 63.8746 187.809 63.8824C187.549 63.8901 187.288 63.8221 187.056 63.6861L174.588 56.4183L174.406 56.3136L161.96 62.5893C161.731 62.7078 161.47 62.7539 161.209 62.7222C160.947 62.6906 160.696 62.5824 160.484 62.4106V62.4106Z" fill="black"/>
</g>
<g clip-path="url(#clip1_133_309)">
<path d="M38.2934 19.1324L45.3293 31.9072L59.8455 33.3618C60.1908 33.3967 60.5194 33.5274 60.7944 33.7391C61.0694 33.9508 61.2798 34.2352 61.4018 34.5601C61.5237 34.885 61.5525 35.2376 61.4847 35.578C61.417 35.9184 61.2555 36.2331 61.0184 36.4865L51.0414 47.1275L54.1489 61.3782C54.2224 61.7172 54.1997 62.07 54.0834 62.3969C53.9671 62.7237 53.7619 63.0116 53.4908 63.228C53.2196 63.4444 52.8935 63.5808 52.549 63.6218C52.2045 63.6628 51.8554 63.6067 51.5411 63.46L38.3376 57.2718L25.7461 64.6207C25.4462 64.7959 25.1032 64.8837 24.756 64.8742C24.4088 64.8647 24.0712 64.7583 23.7812 64.567C23.4913 64.3757 23.2607 64.1072 23.1154 63.7917C22.9701 63.4762 22.916 63.1263 22.9591 62.7816L24.777 48.3094L13.8845 38.6074C13.6255 38.3757 13.4364 38.0761 13.3388 37.7425C13.2412 37.4089 13.2389 37.0547 13.3321 36.7199C13.4254 36.385 13.6105 36.083 13.8665 35.8479C14.1225 35.6128 14.4392 35.4541 14.7808 35.3896L29.108 32.6457L34.9592 19.2824C35.0982 18.964 35.3237 18.6909 35.6102 18.4941C35.8966 18.2972 36.2324 18.1847 36.5795 18.169C36.9267 18.1534 37.2713 18.2354 37.5742 18.4057C37.8771 18.576 38.1263 18.8277 38.2934 19.1324V19.1324Z" fill="#FFC701"/>
<path d="M52.4361 64.0391C52.0687 64.0561 51.7029 63.982 51.3711 63.8232L38.3575 57.7125L25.9481 64.9672C25.5837 65.1799 25.1671 65.2865 24.7454 65.275C24.3236 65.2635 23.9134 65.1343 23.5612 64.902C23.2089 64.6697 22.9286 64.3436 22.7519 63.9604C22.5752 63.5772 22.5092 63.1523 22.5612 62.7336L24.3512 48.469L13.6174 38.9148C13.2999 38.6343 13.0676 38.2703 12.9468 37.8642C12.826 37.4582 12.8216 37.0263 12.934 36.6179C13.0465 36.2095 13.2714 35.8408 13.5831 35.5538C13.8948 35.2669 14.2807 35.0732 14.6971 34.9948L28.8139 32.2919L34.5909 19.127C34.7605 18.7401 35.035 18.4085 35.3833 18.1695C35.7316 17.9306 36.1399 17.7939 36.5618 17.7749C36.9838 17.7559 37.4027 17.8554 37.771 18.0621C38.1394 18.2688 38.4426 18.5744 38.6463 18.9445L45.5794 31.5375L59.8848 32.9614C60.3045 33.0048 60.7037 33.1647 61.0374 33.4229C61.371 33.6812 61.6258 34.0275 61.7731 34.4229C61.9203 34.8183 61.9541 35.247 61.8706 35.6606C61.7871 36.0742 61.5896 36.4562 61.3005 36.7635L51.4682 47.2431L54.5319 61.2864C54.6018 61.6085 54.6007 61.9419 54.5287 62.2635C54.4567 62.585 54.3155 62.8871 54.1149 63.1486C53.9143 63.41 53.6592 63.6247 53.3673 63.7776C53.0753 63.9305 52.7536 64.018 52.4244 64.0339L52.4361 64.0391ZM38.3167 56.8053L38.5099 56.8941L51.7111 63.0938C51.9573 63.2097 52.231 63.2544 52.5013 63.2229C52.7716 63.1913 53.0276 63.0847 53.2405 62.9152C53.4534 62.7457 53.6146 62.52 53.7058 62.2637C53.7971 62.0073 53.8149 61.7306 53.7571 61.4647L50.6029 47.0068L60.7286 36.2271C60.9143 36.0283 61.0408 35.7816 61.0939 35.5148C61.1469 35.248 61.1244 34.9716 61.0289 34.7169C60.9334 34.4622 60.7686 34.2392 60.5532 34.073C60.3378 33.9068 60.0803 33.8041 59.8096 33.7764L45.0805 32.3055L37.9412 19.3347C37.8099 19.0962 37.6146 18.8993 37.3772 18.7661C37.1399 18.6329 36.87 18.5688 36.5981 18.5811C36.3262 18.5933 36.0632 18.6814 35.8388 18.8353C35.6143 18.9893 35.4375 19.203 35.3282 19.4523L29.3826 33.0119L14.8473 35.7852C14.5803 35.8371 14.333 35.9626 14.1334 36.1474C13.9338 36.3322 13.7898 36.5691 13.7175 36.8314C13.6452 37.0937 13.6477 37.3709 13.7244 37.6319C13.8012 37.8929 13.9494 38.1273 14.1522 38.3086L25.2057 48.1496L23.3595 62.821C23.3221 63.0923 23.362 63.3687 23.4746 63.6183C23.5873 63.868 23.7681 64.0808 23.9962 64.2323C24.2244 64.3837 24.4907 64.4678 24.7645 64.4747C25.0383 64.4816 25.3085 64.4111 25.544 64.2713L38.3167 56.8053Z" fill="black"/>
<path d="M64.3432 36.7614C64.196 36.365 63.9402 36.018 63.605 35.7603C63.2699 35.5025 62.8689 35.3443 62.448 35.3038L61.9209 35.2529C61.9221 34.9691 61.8705 34.6874 61.7688 34.4224C61.6213 34.0262 61.3654 33.6794 61.0303 33.4217C60.6952 33.164 60.2944 33.0057 59.8736 32.9648L45.5795 31.5375L38.6464 18.9445C38.4427 18.5744 38.1395 18.2688 37.7711 18.0621C37.4028 17.8554 36.9839 17.7559 36.5619 17.7749C36.14 17.7939 35.7317 17.9306 35.3834 18.1695C35.0351 18.4085 34.7606 18.7401 34.591 19.127L28.814 32.2919L14.6972 34.9948C14.282 35.0739 13.8974 35.2678 13.5868 35.5543C13.2761 35.8408 13.0519 36.2086 12.9395 36.616C12.8271 37.0234 12.831 37.4541 12.9508 37.8594C13.0706 38.2646 13.3014 38.6283 13.6172 38.9091L24.351 48.4633L22.561 62.7279C22.5178 63.0721 22.5544 63.4217 22.6679 63.7495C22.7815 64.0774 22.969 64.3746 23.216 64.6184C23.4629 64.8621 23.7626 65.0457 24.0919 65.1549C24.4212 65.2642 24.7713 65.2962 25.1149 65.2484C25.0952 65.655 25.1859 66.0593 25.3772 66.4186C25.5685 66.7779 25.8534 67.0788 26.2017 67.2894C26.55 67.5 26.9488 67.6125 27.3559 67.615C27.7629 67.6176 28.163 67.51 28.5139 67.3037L40.9233 60.049L53.9312 66.16C54.2646 66.3167 54.6309 66.3907 54.9991 66.3758C55.3282 66.3598 55.65 66.2723 55.9419 66.1194C56.2338 65.9665 56.489 65.7519 56.6895 65.4904C56.8901 65.2289 57.0313 64.9269 57.1033 64.6053C57.1754 64.2837 57.1765 63.9503 57.1066 63.6282L54.0428 49.585L63.8751 39.1053C64.165 38.7978 64.3626 38.4149 64.4454 38.0005C64.5281 37.586 64.4927 37.1567 64.3432 36.7614V36.7614ZM24.0021 64.226C23.7729 64.0769 23.5912 63.8654 23.4784 63.6164C23.3655 63.3674 23.3263 63.0913 23.3653 62.8207L25.2082 48.138L14.1553 38.3113C13.9525 38.13 13.8043 37.8956 13.7275 37.6347C13.6508 37.3737 13.6483 37.0964 13.7206 36.8342C13.7929 36.5719 13.9369 36.335 14.1365 36.1501C14.3361 35.9653 14.5834 35.8399 14.8504 35.788L29.3827 33.0119L35.3283 19.4523C35.4376 19.203 35.6144 18.9893 35.8389 18.8353C36.0633 18.6814 36.3263 18.5933 36.5982 18.5811C36.8701 18.5688 37.14 18.6329 37.3773 18.7661C37.6147 18.8993 37.81 19.0962 37.9413 19.3347L45.0806 32.3055L59.8038 33.7709C60.0744 33.7986 60.3319 33.9014 60.5473 34.0675C60.7627 34.2337 60.9275 34.4567 61.023 34.7114C61.1185 34.9661 61.141 35.2425 61.088 35.5093C61.0349 35.7761 60.9084 36.0229 60.7228 36.2217L50.5977 47.0156L53.7566 61.4532C53.8145 61.7191 53.7967 61.9959 53.7054 62.2522C53.6141 62.5086 53.453 62.7343 53.2401 62.9038C53.0272 63.0733 52.7712 63.1798 52.5009 63.2114C52.2306 63.243 51.9569 63.1983 51.7107 63.0824L38.51 56.8941L38.3168 56.8053L25.5441 64.2713C25.3096 64.4117 25.0397 64.482 24.7665 64.4739C24.4932 64.4659 24.228 64.3799 24.0021 64.226V64.226Z" fill="black"/>
</g>
<g clip-path="url(#clip2_133_309)">
<path d="M108.159 10.0819L115.244 25.0187L131.569 27.6598C131.958 27.7229 132.321 27.8933 132.617 28.1517C132.914 28.4101 133.132 28.7463 133.248 29.1223C133.364 29.4983 133.372 29.8992 133.272 30.2797C133.172 30.6602 132.968 31.0052 132.682 31.2758L120.664 42.6319L123.203 58.9694C123.263 59.358 123.213 59.7557 123.059 60.1175C122.905 60.4794 122.653 60.791 122.332 61.0173C122.01 61.2436 121.632 61.3756 121.239 61.3983C120.847 61.4211 120.455 61.3337 120.11 61.1461L105.594 53.2391L90.8435 60.691C90.4922 60.8687 90.0981 60.9446 89.7059 60.9101C89.3137 60.8755 88.9389 60.732 88.624 60.4957C88.3091 60.2593 88.0665 59.9396 87.9238 59.5727C87.781 59.2057 87.7437 58.8062 87.8161 58.4192L90.8652 42.1686L79.2057 30.4443C78.9284 30.1643 78.7351 29.8124 78.6475 29.4282C78.5599 29.0441 78.5816 28.6431 78.71 28.2706C78.8385 27.8982 79.0687 27.5691 79.3744 27.3207C79.6802 27.0722 80.0495 26.9143 80.4403 26.8648L96.8395 24.7423L104.376 10.0231C104.555 9.67227 104.829 9.37869 105.167 9.17565C105.504 8.97261 105.892 8.86823 106.286 8.87435C106.68 8.88048 107.064 8.99686 107.395 9.2103C107.726 9.42374 107.991 9.72569 108.159 10.0819V10.0819Z" fill="#FFC701"/>
<path d="M121.083 61.8628C120.666 61.8568 120.257 61.7478 119.893 61.5455L105.587 53.7392L91.0484 61.097C90.6215 61.3127 90.1429 61.4047 89.6664 61.3628C89.19 61.3208 88.7347 61.1465 88.3521 60.8596C87.9695 60.5726 87.6747 60.1843 87.501 59.7387C87.3273 59.293 87.2817 58.8077 87.3692 58.3375L90.3725 42.3201L78.8823 30.7738C78.5424 30.4346 78.3044 30.0068 78.1956 29.539C78.0867 29.0713 78.1114 28.5824 78.2667 28.128C78.4219 27.6735 78.7017 27.2718 79.074 26.9685C79.4463 26.6652 79.8963 26.4725 80.3727 26.4123L96.5311 24.3218L103.97 9.82189C104.189 9.39583 104.522 9.03939 104.932 8.79292C105.343 8.54644 105.814 8.41976 106.293 8.42721C106.772 8.43465 107.239 8.57592 107.641 8.83504C108.044 9.09416 108.366 9.46078 108.571 9.89344L115.553 24.6175L131.641 27.2094C132.113 27.2873 132.554 27.4955 132.914 27.8106C133.274 28.1257 133.538 28.5351 133.678 28.9926C133.817 29.4501 133.826 29.9374 133.703 30.3997C133.58 30.8619 133.331 31.2806 132.983 31.6085L121.139 42.792L123.643 58.8918C123.7 59.261 123.676 59.6381 123.572 59.9971C123.469 60.356 123.288 60.6881 123.043 60.9702C122.799 61.2523 122.495 61.4777 122.154 61.6307C121.814 61.7837 121.444 61.8606 121.07 61.8561L121.083 61.8628ZM105.603 52.7098L105.815 52.8236L120.327 60.7435C120.598 60.8915 120.905 60.9608 121.213 60.9436C121.521 60.9265 121.818 60.8234 122.07 60.6462C122.322 60.469 122.52 60.2247 122.641 59.9409C122.762 59.6571 122.801 59.3452 122.754 59.0404L120.176 42.4652L132.372 30.9624C132.596 30.7502 132.756 30.4797 132.834 30.1814C132.913 29.8831 132.906 29.5689 132.816 29.2741C132.725 28.9794 132.554 28.7158 132.322 28.513C132.089 28.3102 131.805 28.1763 131.501 28.1264L114.936 25.4524L107.747 10.2866C107.615 10.0078 107.407 9.77159 107.148 9.60462C106.888 9.43766 106.587 9.34663 106.279 9.34183C105.97 9.33704 105.667 9.41867 105.402 9.57748C105.138 9.7363 104.923 9.96597 104.782 10.2405L97.1252 25.1755L80.4886 27.317C80.1829 27.3574 79.8945 27.4824 79.656 27.6778C79.4174 27.8733 79.2382 28.1315 79.1385 28.4233C79.0387 28.7151 79.0225 29.0289 79.0915 29.3295C79.1605 29.6301 79.312 29.9054 79.529 30.1245L91.3613 42.0172L88.2665 58.4911C88.2056 58.7955 88.2318 59.111 88.3421 59.4012C88.4525 59.6914 88.6425 59.9446 88.8903 60.1316C89.1381 60.3187 89.4336 60.432 89.7429 60.4586C90.0523 60.4851 90.3628 60.4239 90.6389 60.2819L105.603 52.7098Z" fill="black"/>
<path d="M136.425 31.8147C136.286 31.3561 136.02 30.946 135.659 30.6313C135.297 30.3167 134.854 30.1102 134.381 30.0355L133.788 29.9418C133.809 29.6207 133.77 29.2985 133.673 28.9917C133.533 28.5332 133.267 28.1233 132.906 27.8088C132.544 27.4942 132.102 27.2875 131.628 27.2125L115.553 24.6175L108.571 9.89343C108.366 9.46078 108.044 9.09416 107.641 8.83504C107.239 8.57592 106.772 8.43465 106.293 8.4272C105.814 8.41976 105.343 8.54644 104.932 8.79291C104.522 9.03939 104.188 9.39582 103.97 9.82189L96.531 24.3218L80.3726 26.4123C79.8975 26.4734 79.449 26.6664 79.0779 26.9693C78.7068 27.2722 78.4279 27.6729 78.2728 28.1262C78.1177 28.5794 78.0926 29.067 78.2003 29.5338C78.308 30.0006 78.5443 30.4279 78.8824 30.7673L90.3725 42.3136L87.3693 58.331C87.2967 58.7176 87.3142 59.1156 87.4202 59.4943C87.5262 59.8731 87.718 60.2223 87.9807 60.515C88.2434 60.8077 88.57 61.036 88.9351 61.1822C89.3002 61.3284 89.694 61.3886 90.0861 61.3581C90.036 61.8168 90.1108 62.2805 90.3027 62.7001C90.4945 63.1197 90.7962 63.4797 91.1759 63.7419C91.5556 64.0041 91.9991 64.1587 92.4595 64.1895C92.9199 64.2202 93.38 64.1259 93.7912 63.9166L108.33 56.5588L122.629 64.365C122.995 64.5652 123.405 64.674 123.822 64.6823C124.196 64.6868 124.566 64.6099 124.907 64.4569C125.248 64.304 125.551 64.0786 125.796 63.7964C126.041 63.5143 126.221 63.1823 126.325 62.8233C126.428 62.4644 126.452 62.0872 126.395 61.718L123.891 45.6182L135.735 34.4347C136.084 34.1066 136.334 33.687 136.456 33.2237C136.578 32.7604 136.567 32.2722 136.425 31.8147V31.8147ZM88.8971 60.1249C88.648 59.9405 88.4569 59.6887 88.3463 59.3993C88.2357 59.1098 88.2102 58.7947 88.2729 58.4912L91.3647 42.0042L79.5321 30.1278C79.3151 29.9087 79.1636 29.6334 79.0946 29.3328C79.0256 29.0322 79.0418 28.7184 79.1416 28.4266C79.2413 28.1348 79.4205 27.8766 79.6591 27.6811C79.8976 27.4857 80.186 27.3607 80.4917 27.3203L97.1251 25.1755L104.782 10.2405C104.923 9.96597 105.138 9.7363 105.402 9.57748C105.666 9.41866 105.97 9.33703 106.279 9.34183C106.587 9.34663 106.888 9.43766 107.148 9.60462C107.407 9.77159 107.614 10.0078 107.747 10.2866L114.936 25.4524L131.494 28.1198C131.798 28.1697 132.083 28.3036 132.315 28.5064C132.547 28.7092 132.718 28.9728 132.809 29.2675C132.9 29.5623 132.906 29.8765 132.828 30.1748C132.75 30.4731 132.59 30.7436 132.366 30.9558L120.17 42.4748L122.754 59.0274C122.801 59.3322 122.762 59.6441 122.641 59.9279C122.52 60.2117 122.323 60.456 122.07 60.6332C121.818 60.8105 121.521 60.9135 121.213 60.9307C120.905 60.9478 120.598 60.8785 120.327 60.7305L105.815 52.8236L105.603 52.7098L90.6388 60.2819C90.3638 60.4246 90.0536 60.4857 89.745 60.4579C89.4364 60.43 89.1422 60.3145 88.8971 60.1249V60.1249Z" fill="black"/>
</g>
<defs>
<clipPath id="clip0_133_309">
<rect width="49.4562" height="48.9985" fill="white" transform="matrix(0.999027 0.0441128 0.0147352 0.999891 150.308 16.5162)"/>
</clipPath>
<clipPath id="clip1_133_309">
<rect width="51.5677" height="49.3847" fill="white" transform="translate(12.0305 18.8803) rotate(-2.5764)"/>
</clipPath>
<clipPath id="clip2_133_309">
<rect width="58.4552" height="55.9806" fill="white" transform="translate(78.4602 7.99616) rotate(0.890819)"/>
</clipPath>
</defs>
</svg>
